<svg height="512" viewBox="0 0 64 64" width="512" xmlns="http://www.w3.org/2000/svg"><g id="Picture-2" data-name="Picture"><path d="m57 2h-50a5.006 5.006 0 0 0 -5 5v36a5.006 5.006 0 0 0 5 5h17v6h-10a4 4 0 0 0 0 8h36a4 4 0 0 0 0-8h-10v-6h17a5.006 5.006 0 0 0 5-5v-36a5.006 5.006 0 0 0 -5-5zm-5 56a2 2 0 0 1 -2 2h-36a2 2 0 0 1 0-4h36a2 2 0 0 1 2 2zm-14-4h-12v-6h12zm22-11a3 3 0 0 1 -3 3h-50a3 3 0 0 1 -3-3v-36a3 3 0 0 1 3-3h50a3 3 0 0 1 3 3z"/><path d="m57 6h-50a1 1 0 0 0 -1 1v34a1 1 0 0 0 1 1h50a1 1 0 0 0 1-1v-34a1 1 0 0 0 -1-1zm-1 2v4h-48v-4zm-48 6h23v26h-23zm25 26v-26h23v26z"/><path d="m10 9h2v2h-2z"/><path d="m14 9h2v2h-2z"/><path d="m18 9h2v2h-2z"/><path d="m53 16h-17a1 1 0 0 0 -1 1v10a1 1 0 0 0 1 1h17a1 1 0 0 0 1-1v-10a1 1 0 0 0 -1-1zm-1 2v7.4l-3.219-4.024a1 1 0 0 0 -1.562 0l-1.6 2-2.851-3.959a1 1 0 0 0 -.808-.417 1 1 0 0 0 -.812.419l-4.148 5.805v-7.224zm-4.488 8-.676-.94 1.164-1.46 1.919 2.4zm-2.464 0h-6.148l3.06-4.284z"/><path d="m35 30h2v2h-2z"/><path d="m39 30h8v2h-8z"/><path d="m49 30h5v2h-5z"/><path d="m35 33h2v2h-2z"/><path d="m39 33h15v2h-15z"/><path d="m10 16h3v2h-3z"/><path d="m15 16h4v2h-4z"/><path d="m21 16h2v2h-2z"/><path d="m12 19h2v2h-2z"/><path d="m16 19h4v2h-4z"/><path d="m22 19h3v2h-3z"/><path d="m14 22h5v2h-5z"/><path d="m21 22h6v2h-6z"/><path d="m10 30h2v2h-2z"/><path d="m14 30h7v2h-7z"/><path d="m12 33h2v2h-2z"/><path d="m16 33h4v2h-4z"/><path d="m22 33h2v2h-2z"/><path d="m15 36h5v2h-5z"/><path d="m22 36h6v2h-6z"/><path d="m12 26h2v2h-2z"/><path d="m16 26h8v2h-8z"/><path d="m26 26h2v2h-2z"/><path d="m35 36h19v2h-19z"/></g></svg>