<svg height="512" viewBox="0 0 64 64" width="512" xmlns="http://www.w3.org/2000/svg"><g id="Browser-Management-Gear-Profile-Online"><path d="m34 54h-27a3 3 0 0 1 -3-3v-39h50v23h2v-28a5.006 5.006 0 0 0 -5-5h-44a5.006 5.006 0 0 0 -5 5v44a5.006 5.006 0 0 0 5 5h27zm-27-50h44a3 3 0 0 1 3 3v3h-50v-3a3 3 0 0 1 3-3z"/><path d="m8 6h2v2h-2z"/><path d="m12 6h2v2h-2z"/><path d="m16 6h2v2h-2z"/><path d="m20.66 25.57-2.77-1.84a3.945 3.945 0 0 0 1.11-2.73v-3a4 4 0 0 0 -8 0v3a3.951 3.951 0 0 0 1.1 2.74l-2.76 1.83a3.006 3.006 0 0 0 -1.34 2.5v2.93a1 1 0 0 0 1 1h12a1 1 0 0 0 1-1v-2.93a3.006 3.006 0 0 0 -1.34-2.5zm-7.66-7.57a2 2 0 0 1 3.94-.48l-.23-.23a1.008 1.008 0 0 0 -1.42 0l-1.41 1.41a1 1 0 0 1 -.71.3h-.17zm.17 3a3 3 0 0 0 2.13-.88l.7-.71 1 1v.59a1.981 1.981 0 0 1 -.67 1.49 2.034 2.034 0 0 1 -2.66 0l-.08-.08a1.983 1.983 0 0 1 -.59-1.41zm3.03 4-1.2.8-1.2-.8.22-.14a3.5 3.5 0 0 0 1.96 0zm3.8 5h-10v-1.93a1 1 0 0 1 .45-.83l1.55-1.04 2.45 1.63a.975.975 0 0 0 1.1 0l2.45-1.63 1.55 1.04a1 1 0 0 1 .45.83z"/><path d="m20.66 45.57-2.77-1.84a3.945 3.945 0 0 0 1.11-2.73v-3a4 4 0 0 0 -8 0v3a3.951 3.951 0 0 0 1.1 2.74l-2.76 1.83a3.006 3.006 0 0 0 -1.34 2.5v2.93a1 1 0 0 0 1 1h12a1 1 0 0 0 1-1v-2.93a3.006 3.006 0 0 0 -1.34-2.5zm-7.66-7.57a2 2 0 0 1 3.94-.48l-.23-.23a1.008 1.008 0 0 0 -1.42 0l-1.41 1.41a1 1 0 0 1 -.71.3h-.17zm.17 3a3 3 0 0 0 2.13-.88l.7-.71 1 1v.59a1.981 1.981 0 0 1 -.67 1.49 2.034 2.034 0 0 1 -2.66 0l-.08-.08a1.983 1.983 0 0 1 -.59-1.41zm3.03 4-1.2.8-1.2-.8.22-.14a3.5 3.5 0 0 0 1.96 0zm3.8 5h-10v-1.93a1 1 0 0 1 .45-.83l1.55-1.04 2.45 1.63a.975.975 0 0 0 1.1 0l2.45-1.63 1.55 1.04a1 1 0 0 1 .45.83z"/><path d="m27 60h10v2h-10z"/><path d="m23 60h2v2h-2z"/><path d="m60 34h2v2h-2z"/><path d="m60 22h2v10h-2z"/><path d="m27 28h14v2h-14z"/><path d="m27 24h14v2h-14z"/><path d="m31 20h10v2h-10z"/><path d="m27 20h2v2h-2z"/><path d="m27 48h5v2h-5z"/><path d="m27 44h5v2h-5z"/><path d="m31 40h4v2h-4z"/><path d="m27 40h2v2h-2z"/><path d="m61.142 45.01-2.682-.383a10.86 10.86 0 0 0 -.679-1.639l1.625-2.166a1 1 0 0 0 -.093-1.307l-2.828-2.828a1 1 0 0 0 -1.306-.093l-2.167 1.624a10.9 10.9 0 0 0 -1.639-.678l-.383-2.682a1 1 0 0 0 -.99-.858h-4a1 1 0 0 0 -.99.858l-.383 2.682a10.855 10.855 0 0 0 -1.639.678l-2.167-1.624a1 1 0 0 0 -1.306.093l-2.828 2.828a1 1 0 0 0 -.093 1.307l1.625 2.166a10.86 10.86 0 0 0 -.679 1.639l-2.682.383a1 1 0 0 0 -.858.99v4a1 1 0 0 0 .858.99l2.682.383a10.86 10.86 0 0 0 .679 1.639l-1.625 2.166a1 1 0 0 0 .093 1.307l2.828 2.828a1 1 0 0 0 1.306.093l2.167-1.624a10.855 10.855 0 0 0 1.639.678l.383 2.682a1 1 0 0 0 .99.858h4a1 1 0 0 0 .99-.858l.383-2.682a10.9 10.9 0 0 0 1.639-.678l2.167 1.624a1 1 0 0 0 1.306-.093l2.828-2.828a1 1 0 0 0 .093-1.307l-1.625-2.166a10.86 10.86 0 0 0 .679-1.639l2.682-.383a1 1 0 0 0 .858-.99v-4a1 1 0 0 0 -.858-.99zm-1.142 4.123-2.463.352a1 1 0 0 0 -.827.742 8.923 8.923 0 0 1 -.977 2.357 1 1 0 0 0 .061 1.111l1.492 1.99-1.6 1.6-1.991-1.492a1 1 0 0 0 -1.11-.06 8.859 8.859 0 0 1 -2.356.975 1 1 0 0 0 -.744.828l-.352 2.464h-2.266l-.351-2.463a1 1 0 0 0 -.744-.828 8.859 8.859 0 0 1 -2.356-.975 1 1 0 0 0 -1.11.06l-1.991 1.492-1.6-1.6 1.492-1.99a1 1 0 0 0 .061-1.111 8.923 8.923 0 0 1 -.977-2.357 1 1 0 0 0 -.827-.742l-2.464-.353v-2.266l2.463-.352a1 1 0 0 0 .827-.742 8.923 8.923 0 0 1 .977-2.357 1 1 0 0 0 -.061-1.111l-1.492-1.99 1.6-1.6 1.991 1.492a1 1 0 0 0 1.11.06 8.859 8.859 0 0 1 2.356-.975 1 1 0 0 0 .744-.828l.352-2.464h2.266l.351 2.463a1 1 0 0 0 .744.828 8.859 8.859 0 0 1 2.356.975 1 1 0 0 0 1.11-.06l1.991-1.492 1.6 1.6-1.492 1.99a1 1 0 0 0 -.061 1.111 8.923 8.923 0 0 1 .977 2.357 1 1 0 0 0 .827.742l2.464.353z"/><path d="m48 42a6 6 0 1 0 6 6 6.006 6.006 0 0 0 -6-6zm0 10a4 4 0 1 1 4-4 4 4 0 0 1 -4 4z"/><path d="m47 38h2v2h-2z"/><path d="m40.636 40.636h2v2h-2z" transform="matrix(.707 -.707 .707 .707 -17.246 41.626)"/><path d="m38 47h2v2h-2z"/><path d="m40.636 53.364h2v2h-2z" transform="matrix(.707 -.707 .707 .707 -26.246 45.364)"/><path d="m47 56h2v2h-2z"/><path d="m53.364 53.364h2v2h-2z" transform="matrix(.707 -.707 .707 .707 -22.518 54.351)"/><path d="m56 47h2v2h-2z"/><path d="m53.364 40.636h2v2h-2z" transform="matrix(.707 -.707 .707 .707 -13.517 50.648)"/></g></svg>